# xmcd
#
# Track frame offsets:
#	150
#	25774
#	72355
#	103924
#	126346
#	152927
#	190906
#	225643
#	284233
#	318065
#
# Disc length: 4689 seconds
# Revision: 0
# Processed by: cddbd v1.5.2PL0 Copyright (c) Steve Scherf et al.
# Submitted via: dBpowerAMP V12.0
#
DISCID=91124f0a
DTITLE=Ingrid Noll - Hab und Gier CD3
DYEAR=1900
DGENRE=
TTITLE0=Der Fleischwolf
TTITLE1=Der Fleischwolf
TTITLE2=Nachtgespenster
TTITLE3=Nachtgespenster
TTITLE4=Nachtgespenster
TTITLE5=Die Fälscherwerkstatt
TTITLE6=Die Fälscherwerkstatt
TTITLE7=Das neue Testament
TTITLE8=Die Qualle
TTITLE9=Die Qualle
EXTD=
EXTT0=
EXTT1=
EXTT2=
EXTT3=
EXTT4=
EXTT5=
EXTT6=
EXTT7=
EXTT8=
EXTT9=
PLAYORDER=
